# xmcd
#
# Track frame offsets:
#	150
#	13547
#	23915
#	33235
#	43762
#	53710
#	65395
#	76360
#	86490
#	100275
#	112402
#
# Disc length: 1670 seconds
#
# Revision: 1
# Processed by: cddbd v1.5.2PL0 Copyright (c) Steve Scherf et al.
# Submitted via: EZCDAudioConverter 7.0.6.1
#
DISCID=8806840b
DTITLE=Glen Campbell - Gentle On My Mind
DYEAR=2001
DGENRE=Country
TTITLE0=Gentle On My Mind
TTITLE1=Catch The Wind
TTITLE2=It’S Over
TTITLE3=Bowling Green
TTITLE4=Just Another Man
TTITLE5=You’Re My World
TTITLE6=The World I Used To Know
TTITLE7=Without Her
TTITLE8=Mary In The Morning
TTITLE9=Love Me As Though There Were No Tomorrow
TTITLE10=Cryin’
EXTD=
EXTT0=
EXTT1=
EXTT2=
EXTT3=
EXTT4=
EXTT5=
EXTT6=
EXTT7=
EXTT8=
EXTT9=
EXTT10=
PLAYORDER=
